<svg
          class="es-banner__image"
          width="557"
          height="100"
          viewBox="0 0 557 100"
          fill="none"
          xmlns="http://www.w3.org/2000/svg"
        >
          <g clip-path="url(#clip0_3_113)">
            <path
              d="M348.563 0L316.83 15.8537L348.563 5.99593L380.396 15.8537L348.563 0Z"
              fill="black"
            />
            <path
              d="M479.899 86.5854C481.501 100 488.408 97.9675 488.808 99.187C488.808 99.187 461.981 99.187 461.981 99.0854C461.88 98.5772 469.689 98.9837 468.087 87.0935L461.08 34.6545C460.779 33.2317 460.779 31.7073 459.978 32.0122C459.478 32.3171 436.354 88.6179 436.354 88.6179C436.054 89.5325 435.453 90.1423 434.652 88.8211C434.152 87.8049 413.03 41.0569 413.03 41.0569C412.029 38.7195 410.127 34.9594 409.826 34.3496C409.226 33.2317 408.425 33.0285 408.525 36.9919L403.019 90.1423C401.718 99.3903 410.427 98.6789 410.327 99.2886H391.307C391.107 98.8821 397.714 99.6951 399.115 89.939L405.422 31.3008C404.921 19.9187 397.113 20.5285 397.113 19.6138H417.034L417.334 20.2236L438.556 66.8699C438.856 67.3781 439.057 67.6829 439.157 67.9878C439.757 69.309 439.757 70.2236 440.458 68.4959L461.28 19.5122L480.5 19.6138C480.6 20.3252 472.792 19.9187 472.792 29.6748L479.899 86.5854Z"
              fill="black"
            />
            <path
              d="M41.5432 96.6464H30.732C26.928 96.5447 22.4233 97.2561 22.4233 92.6829V30.996C22.4233 21.4431 32.9343 21.4431 33.635 20.6301H1.30135C0.800833 21.3415 11.2117 21.5447 11.2117 31.3008V90.7521C11.0115 98.6789 0 98.8821 0 99.3903H57.2596L60.3628 82.3171C59.1615 82.2155 60.0625 96.3415 41.5432 96.6464Z"
              fill="black"
            />
            <path
              d="M163.47 91.1585C164.571 101.016 171.979 98.4756 171.979 99.3903H151.257C151.357 98.4756 159.566 99.3903 159.466 90.5488V89.6342V30.7927C159.666 20.4268 150.657 20.4268 150.457 19.6138H171.178L214.223 73.374L214.123 29.6748C213.822 19.1057 205.814 19.9187 205.714 19.309H227.437C227.336 19.8171 218.828 20.0203 218.427 29.6748L218.327 97.2561C218.327 97.2561 219.128 102.337 216.025 98.374C214.623 96.6464 164.271 32.2155 164.271 32.2155C163.77 31.7073 163.57 32.3171 163.57 33.8415L163.47 90.1423V91.1585Z"
              fill="black"
            />
            <path
              d="M135.541 89.3293L106.611 20.0203C104.509 17.6829 103.808 20.3252 103.808 20.3252C100.905 27.0325 74.4775 91.2602 74.4775 91.2602C70.8737 99.7968 66.1688 98.7805 66.1688 99.3903H84.8883C84.8883 98.4756 74.7778 100 78.2814 91.0569L88.2918 66.3618C89.2929 64.8374 89.393 64.3293 91.8956 64.3293C95.9999 64.3293 108.713 64.3293 110.615 64.3293C112.917 64.3293 113.018 64.3293 114.019 66.6667L123.528 90.0407C126.331 99.3903 117.823 98.8821 118.023 99.4919H144.65C144.751 98.5773 140.446 101.321 135.541 89.3293ZM93.5973 60.5691C91.4952 60.5691 91.7955 59.3496 92.5963 57.4187C92.5963 57.4187 99.7037 39.6342 100.505 37.5C101.606 34.7561 102.707 35.2642 103.508 37.7033L110.615 57.7236C111.316 59.9594 112.217 60.5691 109.814 60.5691C108.012 60.5691 94.3982 60.5691 93.5973 60.5691Z"
              fill="black"
            />
            <path
              d="M348.763 18.1911C323.937 18.1911 308.02 38.1098 308.02 59.248C308.02 80.3862 323.837 99.2886 348.563 99.2886C373.388 99.2886 389.605 80.3862 389.605 59.248C389.605 38.1098 373.589 18.1911 348.763 18.1911ZM348.563 96.3415C348.462 96.3415 348.362 96.3415 348.262 96.3415C333.046 96.3415 323.036 81.9106 323.036 59.4512C323.036 33.7398 333.347 21.2399 348.563 21.2399C363.778 21.2399 374.089 33.7398 374.089 59.4512C374.189 81.8089 363.678 96.2398 348.563 96.3415Z"
              fill="black"
            />
            <path
              d="M273.284 96.2399C291.203 95.935 299.211 83.435 300.813 82.8252C301.614 82.5203 292.104 99.2886 273.084 99.2886C230.34 99.2886 231.14 60.2642 231.14 60.2642C232.442 32.8252 254.465 16.5651 275.487 18.8008C281.092 19.4106 283.595 20.3252 287.699 21.6464C289.601 22.2561 294.907 25.1016 297.009 24.3903C298.511 23.8821 299.512 20.7317 299.912 20.5285L300.112 41.8699C298.611 41.8699 293.906 21.3415 273.585 21.3415C256.967 21.3415 244.254 40.5488 244.554 59.3496C244.955 90.6504 266.677 96.3415 273.284 96.2399Z"
              fill="black"
            />
            <path
              d="M516.737 60.061V79.6748V89.939C516.838 95.935 516.237 96.6463 520.141 96.6463H541.263C546.368 96.3415 549.772 95.0203 551.874 93.2927C556.779 89.4309 555.578 83.5366 556.579 83.3333L556.078 99.2886H496.717C496.516 98.6789 505.526 100.203 505.526 87.0935V76.9309V32.2154C505.526 19.1057 497.117 21.1382 497.317 20.0203H556.178L556.679 35.7724C555.478 35.6707 558.581 23.4756 541.163 22.3577H521.542C518.139 22.3577 516.737 22.3577 516.737 28.8618V45.8333L516.838 49.5935C516.838 52.5406 516.838 52.7439 520.942 52.7439H539.861C549.371 52.7439 548.07 44.1057 548.971 44.1057V64.6341C548.17 64.6341 549.371 55.1829 540.362 55.3862H521.242C517.038 55.2845 516.938 56.8089 516.938 59.7561L516.737 60.061Z"
              fill="black"
            />
            <path
              d="M330.544 58.5366V56.809H333.046C333.747 56.809 334.348 56.9106 334.348 57.622C334.348 58.435 333.747 58.435 333.046 58.435H330.544V58.5366ZM329.343 61.9919H330.544V59.6545H332.746C333.747 59.6545 335.449 59.6545 335.449 57.8252C335.449 55.8943 333.747 55.8943 332.746 55.8943H329.343V61.9919Z"
              fill="black"
            />
            <path
              d="M339.253 59.5529L340.554 56.809L341.856 59.5529H339.253ZM336.85 61.9919H338.152L338.752 60.5691H342.256L342.857 61.9919H344.158L341.155 55.8943H339.753L336.85 61.9919Z"
              fill="black"
            />
            <path
              d="M348.362 58.5366V56.8089H350.665C351.666 56.8089 352.166 56.9106 352.166 57.7236C352.166 58.435 351.666 58.6382 350.665 58.6382H348.362V58.5366ZM347.161 61.9919H348.362V59.5528H350.264L352.066 61.9919H353.568L351.666 59.4512C352.567 59.4512 353.368 58.7398 353.368 57.6219C353.368 56.0976 352.366 55.7927 350.865 55.7927H347.161V61.9919Z"
              fill="black"
            />
            <path
              d="M358.273 55.7927H357.071V61.8902H358.273V55.7927Z"
              fill="black"
            />
            <path
              d="M366.681 57.622C366.481 57.1138 365.981 56.6057 364.579 56.6057C363.778 56.6057 362.978 56.809 362.978 57.4187C362.978 57.7236 363.178 57.9268 364.379 58.1301L365.78 58.3333C367.182 58.5366 367.983 59.0447 367.983 60.061C367.983 61.4838 366.581 62.0935 364.98 62.0935C362.377 62.0935 361.676 60.7724 361.576 60.3659L362.677 59.9594C362.877 60.3659 363.378 61.0772 364.98 61.0772C365.981 61.0772 366.782 60.7724 366.782 60.2642C366.782 59.8577 366.281 59.6545 365.48 59.4512L363.979 59.248C362.577 59.0447 361.776 58.435 361.776 57.5203C361.776 55.6911 364.179 55.6911 364.579 55.6911C367.182 55.6911 367.682 56.9106 367.783 57.3171L366.681 57.622Z"
              fill="black"
            />
          </g>
          <defs>
            <clipPath id="clip0_3_113">
              <rect width="556.579" height="100" fill="white" />
            </clipPath>
          </defs>
        </svg>